<mxfile host="Electron" modified="2023-11-21T07:14:58.740Z" agent="Mozilla/5.0 (Windows NT 10.0; Win64; x64) AppleWebKit/537.36 (KHTML, like Gecko) draw.io/22.0.0 Chrome/114.0.5735.289 Electron/25.8.3 Safari/537.36" etag="jXdAvFVliWDn72tmW22c" version="22.0.0" type="device">
  <diagram name="第1頁" id="w8Y3zFiB25iGrUSPk7YY">
    <mxGraphModel dx="3138" dy="985" grid="1" gridSize="10" guides="1" tooltips="1" connect="1" arrows="1" fold="1" page="1" pageScale="1" pageWidth="1169" pageHeight="827" math="0" shadow="0">
      <root>
        <mxCell id="0" />
        <mxCell id="1" parent="0" />
        <mxCell id="1Ielz3oQNkOGcChXhk5W-86" value="" style="group" vertex="1" connectable="0" parent="1">
          <mxGeometry x="-70" y="70" width="1640" height="740" as="geometry" />
        </mxCell>
        <mxCell id="1Ielz3oQNkOGcChXhk5W-4" value="Location Y" style="ellipse;whiteSpace=wrap;html=1;container=0;" vertex="1" parent="1Ielz3oQNkOGcChXhk5W-86">
          <mxGeometry x="360" y="10" width="90" height="30" as="geometry" />
        </mxCell>
        <mxCell id="1Ielz3oQNkOGcChXhk5W-5" value="Location X" style="ellipse;whiteSpace=wrap;html=1;container=0;" vertex="1" parent="1Ielz3oQNkOGcChXhk5W-86">
          <mxGeometry x="250" y="10" width="90" height="30" as="geometry" />
        </mxCell>
        <mxCell id="1Ielz3oQNkOGcChXhk5W-6" value="" style="endArrow=none;html=1;rounded=0;entryX=0.576;entryY=1.008;entryDx=0;entryDy=0;entryPerimeter=0;" edge="1" parent="1Ielz3oQNkOGcChXhk5W-86" source="b8P8zdBerkyFOxZp3jXj-5" target="1Ielz3oQNkOGcChXhk5W-5">
          <mxGeometry width="50" height="50" relative="1" as="geometry">
            <mxPoint x="330" y="250" as="sourcePoint" />
            <mxPoint x="380" y="200" as="targetPoint" />
          </mxGeometry>
        </mxCell>
        <mxCell id="1Ielz3oQNkOGcChXhk5W-8" value="" style="endArrow=none;html=1;rounded=0;" edge="1" parent="1Ielz3oQNkOGcChXhk5W-86" source="b8P8zdBerkyFOxZp3jXj-5" target="1Ielz3oQNkOGcChXhk5W-4">
          <mxGeometry width="50" height="50" relative="1" as="geometry">
            <mxPoint x="330" y="250" as="sourcePoint" />
            <mxPoint x="396" y="44" as="targetPoint" />
          </mxGeometry>
        </mxCell>
        <mxCell id="b8P8zdBerkyFOxZp3jXj-3" value="TimeStamp" style="ellipse;whiteSpace=wrap;html=1;container=0;" parent="1Ielz3oQNkOGcChXhk5W-86" vertex="1">
          <mxGeometry x="450" y="30" width="90" height="30" as="geometry" />
        </mxCell>
        <mxCell id="b8P8zdBerkyFOxZp3jXj-4" value="" style="endArrow=none;html=1;rounded=0;exitX=0.5;exitY=0;exitDx=0;exitDy=0;" parent="1Ielz3oQNkOGcChXhk5W-86" source="P0seviDKz_A83ebYT3GH-59" edge="1">
          <mxGeometry width="50" height="50" relative="1" as="geometry">
            <mxPoint x="420" y="161" as="sourcePoint" />
            <mxPoint x="491" y="60" as="targetPoint" />
          </mxGeometry>
        </mxCell>
        <mxCell id="b8P8zdBerkyFOxZp3jXj-6" value="" style="endArrow=none;html=1;rounded=0;entryX=0.5;entryY=1;entryDx=0;entryDy=0;" parent="1Ielz3oQNkOGcChXhk5W-86" edge="1" target="b8P8zdBerkyFOxZp3jXj-5">
          <mxGeometry width="50" height="50" relative="1" as="geometry">
            <mxPoint x="435" y="100" as="sourcePoint" />
            <mxPoint x="361" y="60" as="targetPoint" />
          </mxGeometry>
        </mxCell>
        <mxCell id="aatPJk_-TWz2ZmmIsJqC-85" value="lat" style="ellipse;whiteSpace=wrap;html=1;container=0;" parent="1Ielz3oQNkOGcChXhk5W-86" vertex="1">
          <mxGeometry x="55" y="670" width="80" height="30" as="geometry" />
        </mxCell>
        <mxCell id="aatPJk_-TWz2ZmmIsJqC-86" value="" style="endArrow=none;html=1;rounded=0;entryX=1;entryY=1;entryDx=0;entryDy=0;exitX=0;exitY=1;exitDx=0;exitDy=0;" parent="1Ielz3oQNkOGcChXhk5W-86" source="P0seviDKz_A83ebYT3GH-17" target="aatPJk_-TWz2ZmmIsJqC-85" edge="1">
          <mxGeometry width="50" height="50" relative="1" as="geometry">
            <mxPoint x="356" y="620" as="sourcePoint" />
            <mxPoint x="380" y="480" as="targetPoint" />
          </mxGeometry>
        </mxCell>
        <mxCell id="aatPJk_-TWz2ZmmIsJqC-87" value="lon" style="ellipse;whiteSpace=wrap;html=1;container=0;" parent="1Ielz3oQNkOGcChXhk5W-86" vertex="1">
          <mxGeometry x="40" y="620" width="80" height="30" as="geometry" />
        </mxCell>
        <mxCell id="aatPJk_-TWz2ZmmIsJqC-88" value="" style="endArrow=none;html=1;rounded=0;entryX=1;entryY=1;entryDx=0;entryDy=0;exitX=0;exitY=0.25;exitDx=0;exitDy=0;" parent="1Ielz3oQNkOGcChXhk5W-86" source="P0seviDKz_A83ebYT3GH-17" target="aatPJk_-TWz2ZmmIsJqC-87" edge="1">
          <mxGeometry width="50" height="50" relative="1" as="geometry">
            <mxPoint x="326" y="620" as="sourcePoint" />
            <mxPoint x="360" y="535" as="targetPoint" />
          </mxGeometry>
        </mxCell>
        <mxCell id="P0seviDKz_A83ebYT3GH-29" value="Hotspot" style="rounded=0;whiteSpace=wrap;html=1;container=0;" parent="1Ielz3oQNkOGcChXhk5W-86" vertex="1">
          <mxGeometry x="615" y="250" width="165" height="30" as="geometry" />
        </mxCell>
        <mxCell id="P0seviDKz_A83ebYT3GH-30" value="Timestamp" style="ellipse;whiteSpace=wrap;html=1;container=0;" parent="1Ielz3oQNkOGcChXhk5W-86" vertex="1">
          <mxGeometry x="760" y="85" width="110" height="30" as="geometry" />
        </mxCell>
        <mxCell id="P0seviDKz_A83ebYT3GH-31" value="UserID" style="ellipse;whiteSpace=wrap;html=1;container=0;" parent="1Ielz3oQNkOGcChXhk5W-86" vertex="1">
          <mxGeometry x="730" y="5" width="90" height="30" as="geometry" />
        </mxCell>
        <mxCell id="P0seviDKz_A83ebYT3GH-32" value="&lt;u&gt;HotspotID&lt;/u&gt;" style="ellipse;whiteSpace=wrap;html=1;container=0;" parent="1Ielz3oQNkOGcChXhk5W-86" vertex="1">
          <mxGeometry x="535" y="150" width="80" height="30" as="geometry" />
        </mxCell>
        <mxCell id="P0seviDKz_A83ebYT3GH-33" value="RoadID" style="ellipse;whiteSpace=wrap;html=1;container=0;" parent="1Ielz3oQNkOGcChXhk5W-86" vertex="1">
          <mxGeometry x="661.25" y="100" width="72.5" height="30" as="geometry" />
        </mxCell>
        <mxCell id="P0seviDKz_A83ebYT3GH-34" value="LocationX" style="ellipse;whiteSpace=wrap;html=1;container=0;" parent="1Ielz3oQNkOGcChXhk5W-86" vertex="1">
          <mxGeometry x="530" y="70" width="80" height="30" as="geometry" />
        </mxCell>
        <mxCell id="P0seviDKz_A83ebYT3GH-35" value="" style="endArrow=none;html=1;rounded=0;exitX=0.447;exitY=0.017;exitDx=0;exitDy=0;exitPerimeter=0;entryX=0.5;entryY=1;entryDx=0;entryDy=0;" parent="1Ielz3oQNkOGcChXhk5W-86" source="P0seviDKz_A83ebYT3GH-29" target="P0seviDKz_A83ebYT3GH-31" edge="1">
          <mxGeometry width="50" height="50" relative="1" as="geometry">
            <mxPoint x="710" y="190" as="sourcePoint" />
            <mxPoint x="760" y="140" as="targetPoint" />
          </mxGeometry>
        </mxCell>
        <mxCell id="P0seviDKz_A83ebYT3GH-36" value="" style="endArrow=none;html=1;rounded=0;entryX=0.5;entryY=1;entryDx=0;entryDy=0;" parent="1Ielz3oQNkOGcChXhk5W-86" target="P0seviDKz_A83ebYT3GH-33" edge="1">
          <mxGeometry width="50" height="50" relative="1" as="geometry">
            <mxPoint x="670" y="250" as="sourcePoint" />
            <mxPoint x="680" y="150" as="targetPoint" />
          </mxGeometry>
        </mxCell>
        <mxCell id="P0seviDKz_A83ebYT3GH-37" value="" style="endArrow=none;html=1;rounded=0;entryX=1;entryY=1;entryDx=0;entryDy=0;exitX=0.169;exitY=-0.017;exitDx=0;exitDy=0;exitPerimeter=0;" parent="1Ielz3oQNkOGcChXhk5W-86" source="P0seviDKz_A83ebYT3GH-29" target="P0seviDKz_A83ebYT3GH-32" edge="1">
          <mxGeometry width="50" height="50" relative="1" as="geometry">
            <mxPoint x="660" y="210" as="sourcePoint" />
            <mxPoint x="615" y="220" as="targetPoint" />
          </mxGeometry>
        </mxCell>
        <mxCell id="P0seviDKz_A83ebYT3GH-38" value="" style="endArrow=none;html=1;rounded=0;entryX=1;entryY=1;entryDx=0;entryDy=0;exitX=0.25;exitY=0;exitDx=0;exitDy=0;" parent="1Ielz3oQNkOGcChXhk5W-86" source="P0seviDKz_A83ebYT3GH-29" target="P0seviDKz_A83ebYT3GH-34" edge="1">
          <mxGeometry width="50" height="50" relative="1" as="geometry">
            <mxPoint x="650" y="210" as="sourcePoint" />
            <mxPoint x="650" y="160" as="targetPoint" />
          </mxGeometry>
        </mxCell>
        <mxCell id="P0seviDKz_A83ebYT3GH-39" value="" style="endArrow=none;html=1;rounded=0;exitX=0.606;exitY=0.05;exitDx=0;exitDy=0;entryX=0;entryY=1;entryDx=0;entryDy=0;exitPerimeter=0;" parent="1Ielz3oQNkOGcChXhk5W-86" source="P0seviDKz_A83ebYT3GH-29" target="P0seviDKz_A83ebYT3GH-30" edge="1">
          <mxGeometry width="50" height="50" relative="1" as="geometry">
            <mxPoint x="766" y="291" as="sourcePoint" />
            <mxPoint x="810" y="220" as="targetPoint" />
          </mxGeometry>
        </mxCell>
        <mxCell id="P0seviDKz_A83ebYT3GH-41" value="Critical" style="ellipse;whiteSpace=wrap;html=1;container=0;" parent="1Ielz3oQNkOGcChXhk5W-86" vertex="1">
          <mxGeometry x="820" y="170" width="100" height="30" as="geometry" />
        </mxCell>
        <mxCell id="P0seviDKz_A83ebYT3GH-42" value="" style="endArrow=none;html=1;rounded=0;exitX=0.852;exitY=-0.017;exitDx=0;exitDy=0;entryX=0;entryY=1;entryDx=0;entryDy=0;exitPerimeter=0;" parent="1Ielz3oQNkOGcChXhk5W-86" source="P0seviDKz_A83ebYT3GH-29" target="P0seviDKz_A83ebYT3GH-41" edge="1">
          <mxGeometry width="50" height="50" relative="1" as="geometry">
            <mxPoint x="749" y="250" as="sourcePoint" />
            <mxPoint x="820" y="230" as="targetPoint" />
          </mxGeometry>
        </mxCell>
        <mxCell id="P0seviDKz_A83ebYT3GH-45" value="ConfirmCount" style="ellipse;whiteSpace=wrap;html=1;container=0;" parent="1Ielz3oQNkOGcChXhk5W-86" vertex="1">
          <mxGeometry x="920" y="190" width="95" height="30" as="geometry" />
        </mxCell>
        <mxCell id="P0seviDKz_A83ebYT3GH-46" value="" style="endArrow=none;html=1;rounded=0;exitX=1;exitY=0;exitDx=0;exitDy=0;entryX=0;entryY=1;entryDx=0;entryDy=0;" parent="1Ielz3oQNkOGcChXhk5W-86" source="P0seviDKz_A83ebYT3GH-29" target="P0seviDKz_A83ebYT3GH-45" edge="1">
          <mxGeometry width="50" height="50" relative="1" as="geometry">
            <mxPoint x="779.5" y="360" as="sourcePoint" />
            <mxPoint x="850.5" y="340" as="targetPoint" />
          </mxGeometry>
        </mxCell>
        <mxCell id="P0seviDKz_A83ebYT3GH-54" value="Comfirm" style="rhombus;whiteSpace=wrap;html=1;container=0;" parent="1Ielz3oQNkOGcChXhk5W-86" vertex="1">
          <mxGeometry x="380" y="220" width="110" height="90" as="geometry" />
        </mxCell>
        <mxCell id="P0seviDKz_A83ebYT3GH-55" value="" style="endArrow=none;html=1;rounded=0;entryX=0;entryY=0.5;entryDx=0;entryDy=0;exitX=1;exitY=0.5;exitDx=0;exitDy=0;" parent="1Ielz3oQNkOGcChXhk5W-86" source="RPgmEn2qXm2ILgxolk-a-31" target="P0seviDKz_A83ebYT3GH-54" edge="1">
          <mxGeometry width="50" height="50" relative="1" as="geometry">
            <mxPoint x="280" y="280" as="sourcePoint" />
            <mxPoint x="410" y="270" as="targetPoint" />
          </mxGeometry>
        </mxCell>
        <mxCell id="P0seviDKz_A83ebYT3GH-56" value="" style="endArrow=none;html=1;rounded=0;entryX=0;entryY=0.5;entryDx=0;entryDy=0;exitX=1;exitY=0.5;exitDx=0;exitDy=0;" parent="1Ielz3oQNkOGcChXhk5W-86" source="P0seviDKz_A83ebYT3GH-54" target="P0seviDKz_A83ebYT3GH-29" edge="1">
          <mxGeometry width="50" height="50" relative="1" as="geometry">
            <mxPoint x="360" y="320" as="sourcePoint" />
            <mxPoint x="410" y="270" as="targetPoint" />
          </mxGeometry>
        </mxCell>
        <mxCell id="P0seviDKz_A83ebYT3GH-57" value="M" style="text;html=1;strokeColor=none;fillColor=none;align=center;verticalAlign=middle;whiteSpace=wrap;rounded=0;container=0;" parent="1Ielz3oQNkOGcChXhk5W-86" vertex="1">
          <mxGeometry x="340" y="240" width="60" height="30" as="geometry" />
        </mxCell>
        <mxCell id="P0seviDKz_A83ebYT3GH-58" value="N" style="text;html=1;strokeColor=none;fillColor=none;align=center;verticalAlign=middle;whiteSpace=wrap;rounded=0;container=0;" parent="1Ielz3oQNkOGcChXhk5W-86" vertex="1">
          <mxGeometry x="470" y="240" width="60" height="30" as="geometry" />
        </mxCell>
        <mxCell id="P0seviDKz_A83ebYT3GH-59" value="Report" style="rhombus;whiteSpace=wrap;html=1;container=0;" parent="1Ielz3oQNkOGcChXhk5W-86" vertex="1">
          <mxGeometry x="380" y="100" width="110" height="90" as="geometry" />
        </mxCell>
        <mxCell id="P0seviDKz_A83ebYT3GH-60" value="Query" style="rhombus;whiteSpace=wrap;html=1;container=0;" parent="1Ielz3oQNkOGcChXhk5W-86" vertex="1">
          <mxGeometry x="380" y="334" width="110" height="90" as="geometry" />
        </mxCell>
        <mxCell id="P0seviDKz_A83ebYT3GH-63" value="" style="endArrow=none;html=1;rounded=0;entryX=0;entryY=0.5;entryDx=0;entryDy=0;exitX=1;exitY=0;exitDx=0;exitDy=0;" parent="1Ielz3oQNkOGcChXhk5W-86" source="RPgmEn2qXm2ILgxolk-a-31" target="P0seviDKz_A83ebYT3GH-59" edge="1">
          <mxGeometry width="50" height="50" relative="1" as="geometry">
            <mxPoint x="590" y="430" as="sourcePoint" />
            <mxPoint x="640" y="380" as="targetPoint" />
          </mxGeometry>
        </mxCell>
        <mxCell id="P0seviDKz_A83ebYT3GH-64" value="" style="endArrow=none;html=1;rounded=0;entryX=1;entryY=0.5;entryDx=0;entryDy=0;exitX=0;exitY=0;exitDx=0;exitDy=0;" parent="1Ielz3oQNkOGcChXhk5W-86" source="P0seviDKz_A83ebYT3GH-29" target="P0seviDKz_A83ebYT3GH-59" edge="1">
          <mxGeometry width="50" height="50" relative="1" as="geometry">
            <mxPoint x="590" y="430" as="sourcePoint" />
            <mxPoint x="640" y="380" as="targetPoint" />
          </mxGeometry>
        </mxCell>
        <mxCell id="P0seviDKz_A83ebYT3GH-66" value="" style="endArrow=none;html=1;rounded=0;exitX=0;exitY=0.5;exitDx=0;exitDy=0;" parent="1Ielz3oQNkOGcChXhk5W-86" source="P0seviDKz_A83ebYT3GH-60" edge="1">
          <mxGeometry width="50" height="50" relative="1" as="geometry">
            <mxPoint x="590" y="430" as="sourcePoint" />
            <mxPoint x="260" y="280" as="targetPoint" />
          </mxGeometry>
        </mxCell>
        <mxCell id="P0seviDKz_A83ebYT3GH-67" value="" style="endArrow=none;html=1;rounded=0;entryX=0;entryY=0.75;entryDx=0;entryDy=0;exitX=1;exitY=0.5;exitDx=0;exitDy=0;" parent="1Ielz3oQNkOGcChXhk5W-86" source="P0seviDKz_A83ebYT3GH-60" target="P0seviDKz_A83ebYT3GH-29" edge="1">
          <mxGeometry width="50" height="50" relative="1" as="geometry">
            <mxPoint x="590" y="430" as="sourcePoint" />
            <mxPoint x="640" y="380" as="targetPoint" />
          </mxGeometry>
        </mxCell>
        <mxCell id="P0seviDKz_A83ebYT3GH-74" value="1" style="text;html=1;strokeColor=none;fillColor=none;align=center;verticalAlign=middle;whiteSpace=wrap;rounded=0;container=0;" parent="1Ielz3oQNkOGcChXhk5W-86" vertex="1">
          <mxGeometry x="340" y="120" width="60" height="30" as="geometry" />
        </mxCell>
        <mxCell id="P0seviDKz_A83ebYT3GH-75" value="N" style="text;html=1;strokeColor=none;fillColor=none;align=center;verticalAlign=middle;whiteSpace=wrap;rounded=0;container=0;" parent="1Ielz3oQNkOGcChXhk5W-86" vertex="1">
          <mxGeometry x="470" y="120" width="60" height="30" as="geometry" />
        </mxCell>
        <mxCell id="P0seviDKz_A83ebYT3GH-76" value="M" style="text;html=1;strokeColor=none;fillColor=none;align=center;verticalAlign=middle;whiteSpace=wrap;rounded=0;container=0;" parent="1Ielz3oQNkOGcChXhk5W-86" vertex="1">
          <mxGeometry x="350" y="350" width="60" height="30" as="geometry" />
        </mxCell>
        <mxCell id="P0seviDKz_A83ebYT3GH-77" value="N" style="text;html=1;strokeColor=none;fillColor=none;align=center;verticalAlign=middle;whiteSpace=wrap;rounded=0;container=0;" parent="1Ielz3oQNkOGcChXhk5W-86" vertex="1">
          <mxGeometry x="460" y="350" width="60" height="30" as="geometry" />
        </mxCell>
        <mxCell id="P0seviDKz_A83ebYT3GH-17" value="WeatherObs" style="rounded=0;whiteSpace=wrap;html=1;container=0;" parent="1Ielz3oQNkOGcChXhk5W-86" vertex="1">
          <mxGeometry x="162.5" y="640" width="157.5" height="50" as="geometry" />
        </mxCell>
        <mxCell id="P0seviDKz_A83ebYT3GH-18" value="&lt;u&gt;ObsTime&lt;/u&gt;" style="ellipse;whiteSpace=wrap;html=1;container=0;" parent="1Ielz3oQNkOGcChXhk5W-86" vertex="1">
          <mxGeometry x="281" y="520" width="80" height="30" as="geometry" />
        </mxCell>
        <mxCell id="P0seviDKz_A83ebYT3GH-19" value="&lt;u&gt;StationId&lt;/u&gt;" style="ellipse;whiteSpace=wrap;html=1;container=0;" parent="1Ielz3oQNkOGcChXhk5W-86" vertex="1">
          <mxGeometry x="50" y="560" width="90" height="30" as="geometry" />
        </mxCell>
        <mxCell id="P0seviDKz_A83ebYT3GH-21" value="locationName" style="ellipse;whiteSpace=wrap;html=1;container=0;" parent="1Ielz3oQNkOGcChXhk5W-86" vertex="1">
          <mxGeometry x="160" y="550" width="90" height="30" as="geometry" />
        </mxCell>
        <mxCell id="P0seviDKz_A83ebYT3GH-24" value="" style="endArrow=none;html=1;rounded=0;entryX=0.5;entryY=1;entryDx=0;entryDy=0;exitX=0.319;exitY=-0.05;exitDx=0;exitDy=0;exitPerimeter=0;" parent="1Ielz3oQNkOGcChXhk5W-86" source="P0seviDKz_A83ebYT3GH-17" target="P0seviDKz_A83ebYT3GH-21" edge="1">
          <mxGeometry width="50" height="50" relative="1" as="geometry">
            <mxPoint x="170" y="600" as="sourcePoint" />
            <mxPoint x="220" y="550" as="targetPoint" />
          </mxGeometry>
        </mxCell>
        <mxCell id="P0seviDKz_A83ebYT3GH-25" value="" style="endArrow=none;html=1;rounded=0;entryX=1;entryY=1;entryDx=0;entryDy=0;exitX=0.169;exitY=-0.017;exitDx=0;exitDy=0;exitPerimeter=0;" parent="1Ielz3oQNkOGcChXhk5W-86" source="P0seviDKz_A83ebYT3GH-17" edge="1">
          <mxGeometry width="50" height="50" relative="1" as="geometry">
            <mxPoint x="200" y="610" as="sourcePoint" />
            <mxPoint x="128.2842712474619" y="585.6066017177982" as="targetPoint" />
          </mxGeometry>
        </mxCell>
        <mxCell id="P0seviDKz_A83ebYT3GH-27" value="" style="endArrow=none;html=1;rounded=0;exitX=0.606;exitY=0;exitDx=0;exitDy=0;entryX=0;entryY=1;entryDx=0;entryDy=0;exitPerimeter=0;" parent="1Ielz3oQNkOGcChXhk5W-86" source="P0seviDKz_A83ebYT3GH-17" target="P0seviDKz_A83ebYT3GH-18" edge="1">
          <mxGeometry width="50" height="50" relative="1" as="geometry">
            <mxPoint x="306" y="691" as="sourcePoint" />
            <mxPoint x="350" y="620" as="targetPoint" />
          </mxGeometry>
        </mxCell>
        <mxCell id="P0seviDKz_A83ebYT3GH-48" value="WDSD" style="ellipse;whiteSpace=wrap;html=1;container=0;" parent="1Ielz3oQNkOGcChXhk5W-86" vertex="1">
          <mxGeometry x="390" y="600" width="80" height="30" as="geometry" />
        </mxCell>
        <mxCell id="P0seviDKz_A83ebYT3GH-49" value="" style="endArrow=none;html=1;rounded=0;exitX=0.812;exitY=0.017;exitDx=0;exitDy=0;entryX=0;entryY=1;entryDx=0;entryDy=0;exitPerimeter=0;" parent="1Ielz3oQNkOGcChXhk5W-86" source="P0seviDKz_A83ebYT3GH-17" target="P0seviDKz_A83ebYT3GH-48" edge="1">
          <mxGeometry width="50" height="50" relative="1" as="geometry">
            <mxPoint x="289" y="650" as="sourcePoint" />
            <mxPoint x="360" y="630" as="targetPoint" />
          </mxGeometry>
        </mxCell>
        <mxCell id="P0seviDKz_A83ebYT3GH-50" value="TEMP" style="ellipse;whiteSpace=wrap;html=1;container=0;" parent="1Ielz3oQNkOGcChXhk5W-86" vertex="1">
          <mxGeometry x="390" y="670" width="80" height="30" as="geometry" />
        </mxCell>
        <mxCell id="P0seviDKz_A83ebYT3GH-51" value="" style="endArrow=none;html=1;rounded=0;entryX=0;entryY=0.5;entryDx=0;entryDy=0;exitX=1;exitY=0.5;exitDx=0;exitDy=0;" parent="1Ielz3oQNkOGcChXhk5W-86" source="P0seviDKz_A83ebYT3GH-17" target="P0seviDKz_A83ebYT3GH-50" edge="1">
          <mxGeometry width="50" height="50" relative="1" as="geometry">
            <mxPoint x="330" y="660" as="sourcePoint" />
            <mxPoint x="370" y="640" as="targetPoint" />
          </mxGeometry>
        </mxCell>
        <mxCell id="P0seviDKz_A83ebYT3GH-52" value="24R" style="ellipse;whiteSpace=wrap;html=1;container=0;" parent="1Ielz3oQNkOGcChXhk5W-86" vertex="1">
          <mxGeometry x="230" y="710" width="80" height="30" as="geometry" />
        </mxCell>
        <mxCell id="P0seviDKz_A83ebYT3GH-53" value="" style="endArrow=none;html=1;rounded=0;exitX=0.855;exitY=0.967;exitDx=0;exitDy=0;exitPerimeter=0;" parent="1Ielz3oQNkOGcChXhk5W-86" source="P0seviDKz_A83ebYT3GH-17" target="P0seviDKz_A83ebYT3GH-52" edge="1">
          <mxGeometry width="50" height="50" relative="1" as="geometry">
            <mxPoint x="320" y="780" as="sourcePoint" />
            <mxPoint x="391" y="760" as="targetPoint" />
          </mxGeometry>
        </mxCell>
        <mxCell id="wD_s_syXHuKoTBuOey40-5" value="Match" style="rhombus;whiteSpace=wrap;html=1;container=0;fillColor=#FFFFCC;" parent="1Ielz3oQNkOGcChXhk5W-86" vertex="1">
          <mxGeometry x="590" y="460" width="89" height="70" as="geometry" />
        </mxCell>
        <mxCell id="wD_s_syXHuKoTBuOey40-8" value="" style="endArrow=none;html=1;rounded=0;entryX=1;entryY=0.5;entryDx=0;entryDy=0;exitX=0;exitY=0.75;exitDx=0;exitDy=0;" parent="1Ielz3oQNkOGcChXhk5W-86" source="aatPJk_-TWz2ZmmIsJqC-24" target="wD_s_syXHuKoTBuOey40-5" edge="1">
          <mxGeometry width="50" height="50" relative="1" as="geometry">
            <mxPoint x="765" y="440" as="sourcePoint" />
            <mxPoint x="751" y="299" as="targetPoint" />
          </mxGeometry>
        </mxCell>
        <mxCell id="wD_s_syXHuKoTBuOey40-38" value="LocationY" style="ellipse;whiteSpace=wrap;html=1;container=0;" parent="1Ielz3oQNkOGcChXhk5W-86" vertex="1">
          <mxGeometry x="620" y="60" width="80" height="30" as="geometry" />
        </mxCell>
        <mxCell id="wD_s_syXHuKoTBuOey40-39" value="" style="endArrow=none;html=1;rounded=0;entryX=0.325;entryY=1.017;entryDx=0;entryDy=0;entryPerimeter=0;" parent="1Ielz3oQNkOGcChXhk5W-86" target="wD_s_syXHuKoTBuOey40-38" edge="1">
          <mxGeometry width="50" height="50" relative="1" as="geometry">
            <mxPoint x="666" y="250" as="sourcePoint" />
            <mxPoint x="608" y="106" as="targetPoint" />
          </mxGeometry>
        </mxCell>
        <mxCell id="wD_s_syXHuKoTBuOey40-40" value="&lt;u&gt;QueryExecuteTime&lt;/u&gt;" style="ellipse;whiteSpace=wrap;html=1;container=0;" parent="1Ielz3oQNkOGcChXhk5W-86" vertex="1">
          <mxGeometry x="230" y="360" width="120" height="30" as="geometry" />
        </mxCell>
        <mxCell id="wD_s_syXHuKoTBuOey40-41" value="QueryStartTime" style="ellipse;whiteSpace=wrap;html=1;container=0;" parent="1Ielz3oQNkOGcChXhk5W-86" vertex="1">
          <mxGeometry x="260" y="410" width="110" height="30" as="geometry" />
        </mxCell>
        <mxCell id="wD_s_syXHuKoTBuOey40-42" value="QueryEndTime" style="ellipse;whiteSpace=wrap;html=1;container=0;" parent="1Ielz3oQNkOGcChXhk5W-86" vertex="1">
          <mxGeometry x="315" y="450" width="110" height="30" as="geometry" />
        </mxCell>
        <mxCell id="wD_s_syXHuKoTBuOey40-43" value="" style="endArrow=none;html=1;rounded=0;entryX=0.5;entryY=1;entryDx=0;entryDy=0;exitX=0.723;exitY=-0.017;exitDx=0;exitDy=0;exitPerimeter=0;" parent="1Ielz3oQNkOGcChXhk5W-86" source="wD_s_syXHuKoTBuOey40-42" target="P0seviDKz_A83ebYT3GH-60" edge="1">
          <mxGeometry width="50" height="50" relative="1" as="geometry">
            <mxPoint x="270" y="275" as="sourcePoint" />
            <mxPoint x="390" y="275" as="targetPoint" />
          </mxGeometry>
        </mxCell>
        <mxCell id="wD_s_syXHuKoTBuOey40-44" value="" style="endArrow=none;html=1;rounded=0;exitX=1;exitY=0.5;exitDx=0;exitDy=0;entryX=0.5;entryY=1;entryDx=0;entryDy=0;" parent="1Ielz3oQNkOGcChXhk5W-86" source="wD_s_syXHuKoTBuOey40-41" target="P0seviDKz_A83ebYT3GH-60" edge="1">
          <mxGeometry width="50" height="50" relative="1" as="geometry">
            <mxPoint x="280" y="285" as="sourcePoint" />
            <mxPoint x="410" y="400" as="targetPoint" />
          </mxGeometry>
        </mxCell>
        <mxCell id="wD_s_syXHuKoTBuOey40-45" value="" style="endArrow=none;html=1;rounded=0;exitX=0.938;exitY=0.767;exitDx=0;exitDy=0;entryX=0.5;entryY=1;entryDx=0;entryDy=0;exitPerimeter=0;" parent="1Ielz3oQNkOGcChXhk5W-86" source="wD_s_syXHuKoTBuOey40-40" target="P0seviDKz_A83ebYT3GH-60" edge="1">
          <mxGeometry width="50" height="50" relative="1" as="geometry">
            <mxPoint x="350" y="380" as="sourcePoint" />
            <mxPoint x="410" y="300" as="targetPoint" />
          </mxGeometry>
        </mxCell>
        <mxCell id="RPgmEn2qXm2ILgxolk-a-31" value="User" style="rounded=0;whiteSpace=wrap;html=1;container=0;" parent="1Ielz3oQNkOGcChXhk5W-86" vertex="1">
          <mxGeometry x="95" y="250" width="165" height="30" as="geometry" />
        </mxCell>
        <mxCell id="RPgmEn2qXm2ILgxolk-a-46" value="UserType" style="ellipse;whiteSpace=wrap;html=1;container=0;" parent="1Ielz3oQNkOGcChXhk5W-86" vertex="1">
          <mxGeometry x="200" y="150" width="90" height="30" as="geometry" />
        </mxCell>
        <mxCell id="RPgmEn2qXm2ILgxolk-a-47" value="&lt;u&gt;UserID&lt;/u&gt;" style="ellipse;whiteSpace=wrap;html=1;container=0;" parent="1Ielz3oQNkOGcChXhk5W-86" vertex="1">
          <mxGeometry y="170" width="80" height="30" as="geometry" />
        </mxCell>
        <mxCell id="RPgmEn2qXm2ILgxolk-a-50" value="UserPassword" style="ellipse;whiteSpace=wrap;html=1;container=0;" parent="1Ielz3oQNkOGcChXhk5W-86" vertex="1">
          <mxGeometry x="35" y="40" width="90" height="30" as="geometry" />
        </mxCell>
        <mxCell id="RPgmEn2qXm2ILgxolk-a-51" value="UserName" style="ellipse;whiteSpace=wrap;html=1;container=0;" parent="1Ielz3oQNkOGcChXhk5W-86" vertex="1">
          <mxGeometry y="120" width="80" height="30" as="geometry" />
        </mxCell>
        <mxCell id="SuAxJYPZ7YgUvPkCugHp-4" value="" style="endArrow=none;html=1;rounded=0;exitX=0.447;exitY=0.017;exitDx=0;exitDy=0;exitPerimeter=0;entryX=0.5;entryY=1;entryDx=0;entryDy=0;" parent="1Ielz3oQNkOGcChXhk5W-86" source="RPgmEn2qXm2ILgxolk-a-31" edge="1" target="RPgmEn2qXm2ILgxolk-a-46">
          <mxGeometry width="50" height="50" relative="1" as="geometry">
            <mxPoint x="190" y="200" as="sourcePoint" />
            <mxPoint x="270" y="150" as="targetPoint" />
          </mxGeometry>
        </mxCell>
        <mxCell id="SuAxJYPZ7YgUvPkCugHp-5" value="" style="endArrow=none;html=1;rounded=0;entryX=0.5;entryY=1;entryDx=0;entryDy=0;exitX=0.319;exitY=-0.05;exitDx=0;exitDy=0;exitPerimeter=0;" parent="1Ielz3oQNkOGcChXhk5W-86" source="RPgmEn2qXm2ILgxolk-a-31" target="RPgmEn2qXm2ILgxolk-a-50" edge="1">
          <mxGeometry width="50" height="50" relative="1" as="geometry">
            <mxPoint x="110" y="210" as="sourcePoint" />
            <mxPoint x="160" y="160" as="targetPoint" />
          </mxGeometry>
        </mxCell>
        <mxCell id="SuAxJYPZ7YgUvPkCugHp-6" value="" style="endArrow=none;html=1;rounded=0;entryX=1;entryY=1;entryDx=0;entryDy=0;exitX=0.169;exitY=-0.017;exitDx=0;exitDy=0;exitPerimeter=0;" parent="1Ielz3oQNkOGcChXhk5W-86" source="RPgmEn2qXm2ILgxolk-a-31" target="RPgmEn2qXm2ILgxolk-a-47" edge="1">
          <mxGeometry width="50" height="50" relative="1" as="geometry">
            <mxPoint x="140" y="220" as="sourcePoint" />
            <mxPoint x="95" y="230" as="targetPoint" />
          </mxGeometry>
        </mxCell>
        <mxCell id="SuAxJYPZ7YgUvPkCugHp-7" value="" style="endArrow=none;html=1;rounded=0;entryX=1;entryY=1;entryDx=0;entryDy=0;exitX=0.25;exitY=0;exitDx=0;exitDy=0;" parent="1Ielz3oQNkOGcChXhk5W-86" source="RPgmEn2qXm2ILgxolk-a-31" target="RPgmEn2qXm2ILgxolk-a-51" edge="1">
          <mxGeometry width="50" height="50" relative="1" as="geometry">
            <mxPoint x="130" y="220" as="sourcePoint" />
            <mxPoint x="130" y="170" as="targetPoint" />
          </mxGeometry>
        </mxCell>
        <mxCell id="aatPJk_-TWz2ZmmIsJqC-27" value="&lt;u&gt;RoadID&lt;/u&gt;" style="ellipse;whiteSpace=wrap;html=1;container=0;" parent="1Ielz3oQNkOGcChXhk5W-86" vertex="1">
          <mxGeometry x="1020" y="155" width="80" height="30" as="geometry" />
        </mxCell>
        <mxCell id="aatPJk_-TWz2ZmmIsJqC-24" value="GeoLocatingStaticInfo" style="rounded=0;whiteSpace=wrap;html=1;container=0;" parent="1Ielz3oQNkOGcChXhk5W-86" vertex="1">
          <mxGeometry x="1180" y="255" width="165" height="30" as="geometry" />
        </mxCell>
        <mxCell id="aatPJk_-TWz2ZmmIsJqC-25" value="&lt;u&gt;MileageID_m&lt;/u&gt;" style="ellipse;whiteSpace=wrap;html=1;container=0;" parent="1Ielz3oQNkOGcChXhk5W-86" vertex="1">
          <mxGeometry x="1345" y="155" width="125" height="30" as="geometry" />
        </mxCell>
        <mxCell id="aatPJk_-TWz2ZmmIsJqC-26" value="&lt;u&gt;MileageID_k&lt;/u&gt;" style="ellipse;whiteSpace=wrap;html=1;container=0;" parent="1Ielz3oQNkOGcChXhk5W-86" vertex="1">
          <mxGeometry x="1290" y="70" width="135" height="30" as="geometry" />
        </mxCell>
        <mxCell id="aatPJk_-TWz2ZmmIsJqC-28" value="LocationY" style="ellipse;whiteSpace=wrap;html=1;container=0;" parent="1Ielz3oQNkOGcChXhk5W-86" vertex="1">
          <mxGeometry x="1200" y="125" width="90" height="30" as="geometry" />
        </mxCell>
        <mxCell id="aatPJk_-TWz2ZmmIsJqC-29" value="LocationX" style="ellipse;whiteSpace=wrap;html=1;container=0;" parent="1Ielz3oQNkOGcChXhk5W-86" vertex="1">
          <mxGeometry x="1110" y="55" width="80" height="30" as="geometry" />
        </mxCell>
        <mxCell id="aatPJk_-TWz2ZmmIsJqC-30" value="" style="endArrow=none;html=1;rounded=0;exitX=0.447;exitY=0.017;exitDx=0;exitDy=0;exitPerimeter=0;entryX=0.5;entryY=1;entryDx=0;entryDy=0;" parent="1Ielz3oQNkOGcChXhk5W-86" source="aatPJk_-TWz2ZmmIsJqC-24" target="aatPJk_-TWz2ZmmIsJqC-26" edge="1">
          <mxGeometry width="50" height="50" relative="1" as="geometry">
            <mxPoint x="1275" y="195" as="sourcePoint" />
            <mxPoint x="1325" y="145" as="targetPoint" />
          </mxGeometry>
        </mxCell>
        <mxCell id="aatPJk_-TWz2ZmmIsJqC-31" value="" style="endArrow=none;html=1;rounded=0;entryX=0.5;entryY=1;entryDx=0;entryDy=0;" parent="1Ielz3oQNkOGcChXhk5W-86" target="aatPJk_-TWz2ZmmIsJqC-28" edge="1">
          <mxGeometry width="50" height="50" relative="1" as="geometry">
            <mxPoint x="1235" y="255" as="sourcePoint" />
            <mxPoint x="1245" y="155" as="targetPoint" />
          </mxGeometry>
        </mxCell>
        <mxCell id="aatPJk_-TWz2ZmmIsJqC-32" value="" style="endArrow=none;html=1;rounded=0;entryX=1;entryY=1;entryDx=0;entryDy=0;" parent="1Ielz3oQNkOGcChXhk5W-86" target="aatPJk_-TWz2ZmmIsJqC-27" edge="1">
          <mxGeometry width="50" height="50" relative="1" as="geometry">
            <mxPoint x="1180" y="265" as="sourcePoint" />
            <mxPoint x="1180" y="225" as="targetPoint" />
          </mxGeometry>
        </mxCell>
        <mxCell id="aatPJk_-TWz2ZmmIsJqC-33" value="" style="endArrow=none;html=1;rounded=0;entryX=1;entryY=1;entryDx=0;entryDy=0;exitX=0.25;exitY=0;exitDx=0;exitDy=0;" parent="1Ielz3oQNkOGcChXhk5W-86" source="aatPJk_-TWz2ZmmIsJqC-24" target="aatPJk_-TWz2ZmmIsJqC-29" edge="1">
          <mxGeometry width="50" height="50" relative="1" as="geometry">
            <mxPoint x="1215" y="215" as="sourcePoint" />
            <mxPoint x="1215" y="165" as="targetPoint" />
          </mxGeometry>
        </mxCell>
        <mxCell id="aatPJk_-TWz2ZmmIsJqC-34" value="" style="endArrow=none;html=1;rounded=0;exitX=0.606;exitY=0.05;exitDx=0;exitDy=0;entryX=0;entryY=1;entryDx=0;entryDy=0;exitPerimeter=0;" parent="1Ielz3oQNkOGcChXhk5W-86" source="aatPJk_-TWz2ZmmIsJqC-24" target="aatPJk_-TWz2ZmmIsJqC-25" edge="1">
          <mxGeometry width="50" height="50" relative="1" as="geometry">
            <mxPoint x="1331" y="296" as="sourcePoint" />
            <mxPoint x="1375" y="225" as="targetPoint" />
          </mxGeometry>
        </mxCell>
        <mxCell id="aatPJk_-TWz2ZmmIsJqC-37" value="NearestETagGantryID" style="ellipse;whiteSpace=wrap;html=1;container=0;" parent="1Ielz3oQNkOGcChXhk5W-86" vertex="1">
          <mxGeometry x="1400" y="200" width="165" height="30" as="geometry" />
        </mxCell>
        <mxCell id="aatPJk_-TWz2ZmmIsJqC-38" value="" style="endArrow=none;html=1;rounded=0;entryX=0;entryY=1;entryDx=0;entryDy=0;exitX=1;exitY=0;exitDx=0;exitDy=0;" parent="1Ielz3oQNkOGcChXhk5W-86" source="aatPJk_-TWz2ZmmIsJqC-24" target="aatPJk_-TWz2ZmmIsJqC-37" edge="1">
          <mxGeometry width="50" height="50" relative="1" as="geometry">
            <mxPoint x="1330" y="250" as="sourcePoint" />
            <mxPoint x="1395" y="245" as="targetPoint" />
          </mxGeometry>
        </mxCell>
        <mxCell id="aatPJk_-TWz2ZmmIsJqC-39" value="NearestStationId" style="ellipse;whiteSpace=wrap;html=1;container=0;" parent="1Ielz3oQNkOGcChXhk5W-86" vertex="1">
          <mxGeometry x="1510" y="240" width="130" height="30" as="geometry" />
        </mxCell>
        <mxCell id="aatPJk_-TWz2ZmmIsJqC-40" value="" style="endArrow=none;html=1;rounded=0;entryX=0;entryY=1;entryDx=0;entryDy=0;exitX=1;exitY=0.5;exitDx=0;exitDy=0;" parent="1Ielz3oQNkOGcChXhk5W-86" source="aatPJk_-TWz2ZmmIsJqC-24" target="aatPJk_-TWz2ZmmIsJqC-39" edge="1">
          <mxGeometry width="50" height="50" relative="1" as="geometry">
            <mxPoint x="1380" y="280" as="sourcePoint" />
            <mxPoint x="1415.5" y="345" as="targetPoint" />
          </mxGeometry>
        </mxCell>
        <mxCell id="b8P8zdBerkyFOxZp3jXj-8" value="ConfirmTime" style="ellipse;whiteSpace=wrap;html=1;container=0;" parent="1Ielz3oQNkOGcChXhk5W-86" vertex="1">
          <mxGeometry x="335" y="190" width="90" height="30" as="geometry" />
        </mxCell>
        <mxCell id="b8P8zdBerkyFOxZp3jXj-9" value="" style="endArrow=none;html=1;rounded=0;exitX=0.5;exitY=0;exitDx=0;exitDy=0;entryX=0.589;entryY=0.983;entryDx=0;entryDy=0;entryPerimeter=0;" parent="1Ielz3oQNkOGcChXhk5W-86" source="P0seviDKz_A83ebYT3GH-54" target="b8P8zdBerkyFOxZp3jXj-8" edge="1">
          <mxGeometry width="50" height="50" relative="1" as="geometry">
            <mxPoint x="439" y="220" as="sourcePoint" />
            <mxPoint x="365" y="180" as="targetPoint" />
          </mxGeometry>
        </mxCell>
        <mxCell id="1Ielz3oQNkOGcChXhk5W-1" value="" style="endArrow=none;html=1;rounded=0;entryX=0.25;entryY=1;entryDx=0;entryDy=0;exitX=0;exitY=0.25;exitDx=0;exitDy=0;" edge="1" parent="1Ielz3oQNkOGcChXhk5W-86" source="P0seviDKz_A83ebYT3GH-29" target="P0seviDKz_A83ebYT3GH-75">
          <mxGeometry width="50" height="50" relative="1" as="geometry">
            <mxPoint x="485" y="270" as="sourcePoint" />
            <mxPoint x="535" y="220" as="targetPoint" />
          </mxGeometry>
        </mxCell>
        <mxCell id="b8P8zdBerkyFOxZp3jXj-5" value="Location" style="ellipse;whiteSpace=wrap;html=1;container=0;" parent="1Ielz3oQNkOGcChXhk5W-86" vertex="1">
          <mxGeometry x="310" y="55" width="90" height="30" as="geometry" />
        </mxCell>
        <mxCell id="1Ielz3oQNkOGcChXhk5W-14" value="RoadDirection" style="ellipse;whiteSpace=wrap;html=1;container=0;" vertex="1" parent="1Ielz3oQNkOGcChXhk5W-86">
          <mxGeometry x="1500" y="300" width="125" height="30" as="geometry" />
        </mxCell>
        <mxCell id="1Ielz3oQNkOGcChXhk5W-15" value="" style="endArrow=none;html=1;rounded=0;entryX=1;entryY=1;entryDx=0;entryDy=0;exitX=0;exitY=0.5;exitDx=0;exitDy=0;" edge="1" parent="1Ielz3oQNkOGcChXhk5W-86" source="1Ielz3oQNkOGcChXhk5W-14" target="aatPJk_-TWz2ZmmIsJqC-24">
          <mxGeometry width="50" height="50" relative="1" as="geometry">
            <mxPoint x="740" y="310" as="sourcePoint" />
            <mxPoint x="790" y="260" as="targetPoint" />
          </mxGeometry>
        </mxCell>
        <mxCell id="1Ielz3oQNkOGcChXhk5W-16" value="GantryTo" style="ellipse;whiteSpace=wrap;html=1;container=0;" vertex="1" parent="1Ielz3oQNkOGcChXhk5W-86">
          <mxGeometry x="805" y="670" width="80" height="30" as="geometry" />
        </mxCell>
        <mxCell id="1Ielz3oQNkOGcChXhk5W-17" value="" style="endArrow=none;html=1;rounded=0;entryX=1;entryY=1;entryDx=0;entryDy=0;exitX=0;exitY=1;exitDx=0;exitDy=0;" edge="1" parent="1Ielz3oQNkOGcChXhk5W-86" source="1Ielz3oQNkOGcChXhk5W-20" target="1Ielz3oQNkOGcChXhk5W-16">
          <mxGeometry width="50" height="50" relative="1" as="geometry">
            <mxPoint x="1106" y="620" as="sourcePoint" />
            <mxPoint x="1130" y="480" as="targetPoint" />
          </mxGeometry>
        </mxCell>
        <mxCell id="1Ielz3oQNkOGcChXhk5W-18" value="&lt;u&gt;GantryFrom&lt;/u&gt;" style="ellipse;whiteSpace=wrap;html=1;container=0;" vertex="1" parent="1Ielz3oQNkOGcChXhk5W-86">
          <mxGeometry x="770" y="620" width="100" height="30" as="geometry" />
        </mxCell>
        <mxCell id="1Ielz3oQNkOGcChXhk5W-19" value="" style="endArrow=none;html=1;rounded=0;entryX=1;entryY=1;entryDx=0;entryDy=0;exitX=0;exitY=0.25;exitDx=0;exitDy=0;" edge="1" parent="1Ielz3oQNkOGcChXhk5W-86" source="1Ielz3oQNkOGcChXhk5W-20" target="1Ielz3oQNkOGcChXhk5W-18">
          <mxGeometry width="50" height="50" relative="1" as="geometry">
            <mxPoint x="1076" y="620" as="sourcePoint" />
            <mxPoint x="1110" y="535" as="targetPoint" />
          </mxGeometry>
        </mxCell>
        <mxCell id="1Ielz3oQNkOGcChXhk5W-20" value="eTagObs" style="rounded=0;whiteSpace=wrap;html=1;container=0;" vertex="1" parent="1Ielz3oQNkOGcChXhk5W-86">
          <mxGeometry x="905" y="620" width="165" height="50" as="geometry" />
        </mxCell>
        <mxCell id="1Ielz3oQNkOGcChXhk5W-21" value="Date" style="ellipse;whiteSpace=wrap;html=1;container=0;" vertex="1" parent="1Ielz3oQNkOGcChXhk5W-86">
          <mxGeometry x="1100" y="550" width="80" height="30" as="geometry" />
        </mxCell>
        <mxCell id="1Ielz3oQNkOGcChXhk5W-23" value="traffic" style="ellipse;whiteSpace=wrap;html=1;container=0;" vertex="1" parent="1Ielz3oQNkOGcChXhk5W-86">
          <mxGeometry x="850" y="560" width="90" height="30" as="geometry" />
        </mxCell>
        <mxCell id="1Ielz3oQNkOGcChXhk5W-24" value="" style="endArrow=none;html=1;rounded=0;entryX=0.5;entryY=1;entryDx=0;entryDy=0;exitX=0.319;exitY=-0.05;exitDx=0;exitDy=0;exitPerimeter=0;" edge="1" parent="1Ielz3oQNkOGcChXhk5W-86" source="1Ielz3oQNkOGcChXhk5W-20" target="1Ielz3oQNkOGcChXhk5W-23">
          <mxGeometry width="50" height="50" relative="1" as="geometry">
            <mxPoint x="920" y="600" as="sourcePoint" />
            <mxPoint x="970" y="550" as="targetPoint" />
          </mxGeometry>
        </mxCell>
        <mxCell id="1Ielz3oQNkOGcChXhk5W-26" value="" style="endArrow=none;html=1;rounded=0;exitX=0.606;exitY=0;exitDx=0;exitDy=0;entryX=0;entryY=1;entryDx=0;entryDy=0;exitPerimeter=0;" edge="1" parent="1Ielz3oQNkOGcChXhk5W-86" source="1Ielz3oQNkOGcChXhk5W-20" target="1Ielz3oQNkOGcChXhk5W-21">
          <mxGeometry width="50" height="50" relative="1" as="geometry">
            <mxPoint x="1056" y="691" as="sourcePoint" />
            <mxPoint x="1100" y="620" as="targetPoint" />
          </mxGeometry>
        </mxCell>
        <mxCell id="1Ielz3oQNkOGcChXhk5W-27" value="SpaceMeanSpeed" style="ellipse;whiteSpace=wrap;html=1;container=0;" vertex="1" parent="1Ielz3oQNkOGcChXhk5W-86">
          <mxGeometry x="1120" y="620" width="130" height="30" as="geometry" />
        </mxCell>
        <mxCell id="1Ielz3oQNkOGcChXhk5W-28" value="" style="endArrow=none;html=1;rounded=0;exitX=1;exitY=0.5;exitDx=0;exitDy=0;entryX=0;entryY=1;entryDx=0;entryDy=0;" edge="1" parent="1Ielz3oQNkOGcChXhk5W-86" source="1Ielz3oQNkOGcChXhk5W-20" target="1Ielz3oQNkOGcChXhk5W-27">
          <mxGeometry width="50" height="50" relative="1" as="geometry">
            <mxPoint x="1039" y="650" as="sourcePoint" />
            <mxPoint x="1110" y="630" as="targetPoint" />
          </mxGeometry>
        </mxCell>
        <mxCell id="1Ielz3oQNkOGcChXhk5W-31" value="VehicleType" style="ellipse;whiteSpace=wrap;html=1;container=0;" vertex="1" parent="1Ielz3oQNkOGcChXhk5W-86">
          <mxGeometry x="895" y="700" width="90" height="30" as="geometry" />
        </mxCell>
        <mxCell id="1Ielz3oQNkOGcChXhk5W-32" value="" style="endArrow=none;html=1;rounded=0;exitX=0.25;exitY=1;exitDx=0;exitDy=0;" edge="1" parent="1Ielz3oQNkOGcChXhk5W-86" source="1Ielz3oQNkOGcChXhk5W-20" target="1Ielz3oQNkOGcChXhk5W-31">
          <mxGeometry width="50" height="50" relative="1" as="geometry">
            <mxPoint x="1070" y="780" as="sourcePoint" />
            <mxPoint x="1141" y="760" as="targetPoint" />
          </mxGeometry>
        </mxCell>
        <mxCell id="1Ielz3oQNkOGcChXhk5W-33" value="Nearest_Time" style="ellipse;whiteSpace=wrap;html=1;container=0;" vertex="1" parent="1Ielz3oQNkOGcChXhk5W-86">
          <mxGeometry x="925" y="240" width="95" height="30" as="geometry" />
        </mxCell>
        <mxCell id="1Ielz3oQNkOGcChXhk5W-34" value="" style="endArrow=none;html=1;rounded=0;exitX=1;exitY=0.25;exitDx=0;exitDy=0;entryX=0;entryY=0.5;entryDx=0;entryDy=0;" edge="1" parent="1Ielz3oQNkOGcChXhk5W-86" source="P0seviDKz_A83ebYT3GH-29" target="1Ielz3oQNkOGcChXhk5W-33">
          <mxGeometry width="50" height="50" relative="1" as="geometry">
            <mxPoint x="790" y="260" as="sourcePoint" />
            <mxPoint x="928" y="215" as="targetPoint" />
          </mxGeometry>
        </mxCell>
        <mxCell id="1Ielz3oQNkOGcChXhk5W-35" value="RoadDirection" style="ellipse;whiteSpace=wrap;html=1;container=0;" vertex="1" parent="1Ielz3oQNkOGcChXhk5W-86">
          <mxGeometry x="885" y="285" width="125" height="30" as="geometry" />
        </mxCell>
        <mxCell id="1Ielz3oQNkOGcChXhk5W-36" value="NearestMileageID_k" style="ellipse;whiteSpace=wrap;html=1;container=0;" vertex="1" parent="1Ielz3oQNkOGcChXhk5W-86">
          <mxGeometry x="850" y="330" width="135" height="30" as="geometry" />
        </mxCell>
        <mxCell id="1Ielz3oQNkOGcChXhk5W-37" value="NearestMileageID_m" style="ellipse;whiteSpace=wrap;html=1;container=0;" vertex="1" parent="1Ielz3oQNkOGcChXhk5W-86">
          <mxGeometry x="707.5" y="350" width="135" height="30" as="geometry" />
        </mxCell>
        <mxCell id="1Ielz3oQNkOGcChXhk5W-38" value="" style="endArrow=none;html=1;rounded=0;entryX=1;entryY=1;entryDx=0;entryDy=0;exitX=0;exitY=0.5;exitDx=0;exitDy=0;" edge="1" parent="1Ielz3oQNkOGcChXhk5W-86" source="1Ielz3oQNkOGcChXhk5W-35" target="P0seviDKz_A83ebYT3GH-29">
          <mxGeometry width="50" height="50" relative="1" as="geometry">
            <mxPoint x="740" y="310" as="sourcePoint" />
            <mxPoint x="790" y="260" as="targetPoint" />
          </mxGeometry>
        </mxCell>
        <mxCell id="1Ielz3oQNkOGcChXhk5W-41" value="" style="endArrow=none;html=1;rounded=0;exitX=0.841;exitY=1.069;exitDx=0;exitDy=0;exitPerimeter=0;" edge="1" parent="1Ielz3oQNkOGcChXhk5W-86" source="P0seviDKz_A83ebYT3GH-29" target="1Ielz3oQNkOGcChXhk5W-36">
          <mxGeometry width="50" height="50" relative="1" as="geometry">
            <mxPoint x="740" y="310" as="sourcePoint" />
            <mxPoint x="790" y="260" as="targetPoint" />
          </mxGeometry>
        </mxCell>
        <mxCell id="1Ielz3oQNkOGcChXhk5W-42" value="" style="endArrow=none;html=1;rounded=0;entryX=0.75;entryY=1;entryDx=0;entryDy=0;" edge="1" parent="1Ielz3oQNkOGcChXhk5W-86" source="1Ielz3oQNkOGcChXhk5W-37" target="P0seviDKz_A83ebYT3GH-29">
          <mxGeometry width="50" height="50" relative="1" as="geometry">
            <mxPoint x="755" y="510" as="sourcePoint" />
            <mxPoint x="805" y="460" as="targetPoint" />
          </mxGeometry>
        </mxCell>
        <mxCell id="1Ielz3oQNkOGcChXhk5W-44" value="status" style="ellipse;whiteSpace=wrap;html=1;container=0;" vertex="1" parent="1Ielz3oQNkOGcChXhk5W-86">
          <mxGeometry x="125" y="95" width="90" height="30" as="geometry" />
        </mxCell>
        <mxCell id="1Ielz3oQNkOGcChXhk5W-46" value="" style="endArrow=none;html=1;rounded=0;exitX=0.392;exitY=-0.01;exitDx=0;exitDy=0;exitPerimeter=0;" edge="1" parent="1Ielz3oQNkOGcChXhk5W-86" source="RPgmEn2qXm2ILgxolk-a-31" target="1Ielz3oQNkOGcChXhk5W-44">
          <mxGeometry width="50" height="50" relative="1" as="geometry">
            <mxPoint x="135" y="185" as="sourcePoint" />
            <mxPoint x="185" y="135" as="targetPoint" />
          </mxGeometry>
        </mxCell>
        <mxCell id="1Ielz3oQNkOGcChXhk5W-47" value="&lt;u&gt;UserID&lt;/u&gt;" style="ellipse;whiteSpace=wrap;html=1;container=0;" vertex="1" parent="1Ielz3oQNkOGcChXhk5W-86">
          <mxGeometry x="445" y="190" width="90" height="30" as="geometry" />
        </mxCell>
        <mxCell id="1Ielz3oQNkOGcChXhk5W-48" value="&lt;u&gt;HopspotID&lt;/u&gt;" style="ellipse;whiteSpace=wrap;html=1;container=0;" vertex="1" parent="1Ielz3oQNkOGcChXhk5W-86">
          <mxGeometry x="325" y="285" width="90" height="30" as="geometry" />
        </mxCell>
        <mxCell id="1Ielz3oQNkOGcChXhk5W-49" value="" style="endArrow=none;html=1;rounded=0;entryX=0.5;entryY=1;entryDx=0;entryDy=0;exitX=0.5;exitY=0;exitDx=0;exitDy=0;" edge="1" parent="1Ielz3oQNkOGcChXhk5W-86" source="P0seviDKz_A83ebYT3GH-54" target="1Ielz3oQNkOGcChXhk5W-47">
          <mxGeometry width="50" height="50" relative="1" as="geometry">
            <mxPoint x="740" y="310" as="sourcePoint" />
            <mxPoint x="790" y="260" as="targetPoint" />
          </mxGeometry>
        </mxCell>
        <mxCell id="1Ielz3oQNkOGcChXhk5W-50" value="&lt;u&gt;UserID&lt;/u&gt;" style="ellipse;whiteSpace=wrap;html=1;container=0;" vertex="1" parent="1Ielz3oQNkOGcChXhk5W-86">
          <mxGeometry x="455" y="410" width="90" height="30" as="geometry" />
        </mxCell>
        <mxCell id="1Ielz3oQNkOGcChXhk5W-51" value="" style="endArrow=none;html=1;rounded=0;exitX=0.5;exitY=1;exitDx=0;exitDy=0;" edge="1" parent="1Ielz3oQNkOGcChXhk5W-86" source="P0seviDKz_A83ebYT3GH-60" target="1Ielz3oQNkOGcChXhk5W-50">
          <mxGeometry width="50" height="50" relative="1" as="geometry">
            <mxPoint x="740" y="310" as="sourcePoint" />
            <mxPoint x="790" y="260" as="targetPoint" />
          </mxGeometry>
        </mxCell>
        <mxCell id="1Ielz3oQNkOGcChXhk5W-52" value="" style="endArrow=none;html=1;rounded=0;exitX=0.75;exitY=0;exitDx=0;exitDy=0;" edge="1" parent="1Ielz3oQNkOGcChXhk5W-86" source="P0seviDKz_A83ebYT3GH-17">
          <mxGeometry width="50" height="50" relative="1" as="geometry">
            <mxPoint x="740" y="310" as="sourcePoint" />
            <mxPoint x="590" y="495" as="targetPoint" />
          </mxGeometry>
        </mxCell>
        <mxCell id="1Ielz3oQNkOGcChXhk5W-54" value="&lt;u&gt;EtagGantryID&lt;/u&gt;" style="ellipse;whiteSpace=wrap;html=1;container=0;" vertex="1" parent="1Ielz3oQNkOGcChXhk5W-86">
          <mxGeometry x="1010" y="700" width="90" height="30" as="geometry" />
        </mxCell>
        <mxCell id="1Ielz3oQNkOGcChXhk5W-55" value="" style="endArrow=none;html=1;rounded=0;entryX=0.75;entryY=1;entryDx=0;entryDy=0;exitX=0.5;exitY=0;exitDx=0;exitDy=0;" edge="1" parent="1Ielz3oQNkOGcChXhk5W-86" source="1Ielz3oQNkOGcChXhk5W-54" target="1Ielz3oQNkOGcChXhk5W-20">
          <mxGeometry width="50" height="50" relative="1" as="geometry">
            <mxPoint x="740" y="310" as="sourcePoint" />
            <mxPoint x="790" y="260" as="targetPoint" />
          </mxGeometry>
        </mxCell>
        <mxCell id="1Ielz3oQNkOGcChXhk5W-56" value="Match" style="rhombus;whiteSpace=wrap;html=1;container=0;fillColor=#FFFFCC;" vertex="1" parent="1Ielz3oQNkOGcChXhk5W-86">
          <mxGeometry x="1031" y="430" width="89" height="70" as="geometry" />
        </mxCell>
        <mxCell id="1Ielz3oQNkOGcChXhk5W-57" value="" style="endArrow=none;html=1;rounded=0;entryX=0.5;entryY=1;entryDx=0;entryDy=0;exitX=1;exitY=0.5;exitDx=0;exitDy=0;" edge="1" parent="1Ielz3oQNkOGcChXhk5W-86" source="1Ielz3oQNkOGcChXhk5W-56" target="aatPJk_-TWz2ZmmIsJqC-24">
          <mxGeometry width="50" height="50" relative="1" as="geometry">
            <mxPoint x="740" y="310" as="sourcePoint" />
            <mxPoint x="790" y="260" as="targetPoint" />
          </mxGeometry>
        </mxCell>
        <mxCell id="1Ielz3oQNkOGcChXhk5W-58" value="" style="endArrow=none;html=1;rounded=0;entryX=0;entryY=0.5;entryDx=0;entryDy=0;exitX=0.5;exitY=0;exitDx=0;exitDy=0;" edge="1" parent="1Ielz3oQNkOGcChXhk5W-86" source="1Ielz3oQNkOGcChXhk5W-20" target="1Ielz3oQNkOGcChXhk5W-56">
          <mxGeometry width="50" height="50" relative="1" as="geometry">
            <mxPoint x="740" y="310" as="sourcePoint" />
            <mxPoint x="790" y="260" as="targetPoint" />
          </mxGeometry>
        </mxCell>
        <mxCell id="1Ielz3oQNkOGcChXhk5W-59" value="NearestObsTime" style="ellipse;whiteSpace=wrap;html=1;container=0;" vertex="1" parent="1Ielz3oQNkOGcChXhk5W-86">
          <mxGeometry x="1345" y="330" width="125" height="30" as="geometry" />
        </mxCell>
        <mxCell id="1Ielz3oQNkOGcChXhk5W-61" value="" style="endArrow=none;html=1;rounded=0;entryX=0.857;entryY=1;entryDx=0;entryDy=0;entryPerimeter=0;exitX=0;exitY=0;exitDx=0;exitDy=0;" edge="1" parent="1Ielz3oQNkOGcChXhk5W-86" source="1Ielz3oQNkOGcChXhk5W-59" target="aatPJk_-TWz2ZmmIsJqC-24">
          <mxGeometry width="50" height="50" relative="1" as="geometry">
            <mxPoint x="740" y="310" as="sourcePoint" />
            <mxPoint x="790" y="260" as="targetPoint" />
          </mxGeometry>
        </mxCell>
        <mxCell id="1Ielz3oQNkOGcChXhk5W-62" value="Occur in" style="rhombus;whiteSpace=wrap;html=1;container=0;fillColor=#FFFFCC;" vertex="1" parent="1Ielz3oQNkOGcChXhk5W-86">
          <mxGeometry x="970" width="89" height="70" as="geometry" />
        </mxCell>
        <mxCell id="1Ielz3oQNkOGcChXhk5W-64" value="" style="endArrow=none;html=1;rounded=0;entryX=0.067;entryY=0.564;entryDx=0;entryDy=0;exitX=0.75;exitY=0;exitDx=0;exitDy=0;entryPerimeter=0;" edge="1" parent="1Ielz3oQNkOGcChXhk5W-86" source="P0seviDKz_A83ebYT3GH-29" target="1Ielz3oQNkOGcChXhk5W-62">
          <mxGeometry width="50" height="50" relative="1" as="geometry">
            <mxPoint x="740" y="310" as="sourcePoint" />
            <mxPoint x="790" y="260" as="targetPoint" />
          </mxGeometry>
        </mxCell>
        <mxCell id="1Ielz3oQNkOGcChXhk5W-65" value="" style="endArrow=none;html=1;rounded=0;entryX=1;entryY=0.5;entryDx=0;entryDy=0;exitX=0.036;exitY=0.053;exitDx=0;exitDy=0;exitPerimeter=0;" edge="1" parent="1Ielz3oQNkOGcChXhk5W-86" source="aatPJk_-TWz2ZmmIsJqC-24" target="1Ielz3oQNkOGcChXhk5W-62">
          <mxGeometry width="50" height="50" relative="1" as="geometry">
            <mxPoint x="1180" y="250" as="sourcePoint" />
            <mxPoint x="790" y="260" as="targetPoint" />
          </mxGeometry>
        </mxCell>
        <mxCell id="1Ielz3oQNkOGcChXhk5W-66" value="1" style="text;html=1;strokeColor=none;fillColor=none;align=center;verticalAlign=middle;whiteSpace=wrap;rounded=0;container=0;" vertex="1" parent="1Ielz3oQNkOGcChXhk5W-86">
          <mxGeometry x="931.25" y="20" width="32.5" height="20" as="geometry" />
        </mxCell>
        <mxCell id="1Ielz3oQNkOGcChXhk5W-67" value="1" style="text;html=1;strokeColor=none;fillColor=none;align=center;verticalAlign=middle;whiteSpace=wrap;rounded=0;container=0;" vertex="1" parent="1Ielz3oQNkOGcChXhk5W-86">
          <mxGeometry x="1045.5" y="15" width="60" height="30" as="geometry" />
        </mxCell>
        <mxCell id="1Ielz3oQNkOGcChXhk5W-68" value="" style="endArrow=none;html=1;rounded=0;entryX=0;entryY=0.5;entryDx=0;entryDy=0;exitX=0.697;exitY=0;exitDx=0;exitDy=0;exitPerimeter=0;" edge="1" parent="1Ielz3oQNkOGcChXhk5W-86" source="P0seviDKz_A83ebYT3GH-29" target="1Ielz3oQNkOGcChXhk5W-62">
          <mxGeometry width="50" height="50" relative="1" as="geometry">
            <mxPoint x="740" y="310" as="sourcePoint" />
            <mxPoint x="790" y="260" as="targetPoint" />
          </mxGeometry>
        </mxCell>
        <mxCell id="1Ielz3oQNkOGcChXhk5W-69" value="" style="endArrow=none;html=1;rounded=0;" edge="1" parent="1Ielz3oQNkOGcChXhk5W-86">
          <mxGeometry width="50" height="50" relative="1" as="geometry">
            <mxPoint x="1180" y="260" as="sourcePoint" />
            <mxPoint x="1053" y="40" as="targetPoint" />
          </mxGeometry>
        </mxCell>
        <mxCell id="1Ielz3oQNkOGcChXhk5W-70" value="" style="rounded=0;whiteSpace=wrap;html=1;fillColor=none;" vertex="1" parent="1Ielz3oQNkOGcChXhk5W-86">
          <mxGeometry x="910" y="625" width="150" height="40" as="geometry" />
        </mxCell>
        <mxCell id="1Ielz3oQNkOGcChXhk5W-71" value="" style="rounded=0;whiteSpace=wrap;html=1;fillColor=none;" vertex="1" parent="1Ielz3oQNkOGcChXhk5W-86">
          <mxGeometry x="170" y="645" width="140" height="40" as="geometry" />
        </mxCell>
        <mxCell id="1Ielz3oQNkOGcChXhk5W-72" value="" style="endArrow=none;html=1;rounded=0;entryX=0.442;entryY=0.983;entryDx=0;entryDy=0;entryPerimeter=0;exitX=0.927;exitY=0.429;exitDx=0;exitDy=0;exitPerimeter=0;" edge="1" parent="1Ielz3oQNkOGcChXhk5W-86" source="1Ielz3oQNkOGcChXhk5W-56" target="aatPJk_-TWz2ZmmIsJqC-24">
          <mxGeometry width="50" height="50" relative="1" as="geometry">
            <mxPoint x="1120" y="460" as="sourcePoint" />
            <mxPoint x="1280" y="290" as="targetPoint" />
          </mxGeometry>
        </mxCell>
        <mxCell id="1Ielz3oQNkOGcChXhk5W-73" value="" style="endArrow=none;html=1;rounded=0;exitX=0.561;exitY=0;exitDx=0;exitDy=0;exitPerimeter=0;entryX=0.084;entryY=0.6;entryDx=0;entryDy=0;entryPerimeter=0;" edge="1" parent="1Ielz3oQNkOGcChXhk5W-86" source="1Ielz3oQNkOGcChXhk5W-20" target="1Ielz3oQNkOGcChXhk5W-56">
          <mxGeometry width="50" height="50" relative="1" as="geometry">
            <mxPoint x="740" y="500" as="sourcePoint" />
            <mxPoint x="1040" y="480" as="targetPoint" />
          </mxGeometry>
        </mxCell>
        <mxCell id="1Ielz3oQNkOGcChXhk5W-74" value="" style="endArrow=none;html=1;rounded=0;entryX=0;entryY=1;entryDx=0;entryDy=0;exitX=1;exitY=1;exitDx=0;exitDy=0;" edge="1" parent="1Ielz3oQNkOGcChXhk5W-86" source="wD_s_syXHuKoTBuOey40-5" target="aatPJk_-TWz2ZmmIsJqC-24">
          <mxGeometry width="50" height="50" relative="1" as="geometry">
            <mxPoint x="740" y="500" as="sourcePoint" />
            <mxPoint x="790" y="450" as="targetPoint" />
          </mxGeometry>
        </mxCell>
        <mxCell id="1Ielz3oQNkOGcChXhk5W-75" value="" style="endArrow=none;html=1;rounded=0;" edge="1" parent="1Ielz3oQNkOGcChXhk5W-86">
          <mxGeometry width="50" height="50" relative="1" as="geometry">
            <mxPoint x="600" y="500" as="sourcePoint" />
            <mxPoint x="300" y="640" as="targetPoint" />
          </mxGeometry>
        </mxCell>
        <mxCell id="1Ielz3oQNkOGcChXhk5W-76" value="1" style="text;html=1;strokeColor=none;fillColor=none;align=center;verticalAlign=middle;whiteSpace=wrap;rounded=0;container=0;" vertex="1" parent="1Ielz3oQNkOGcChXhk5W-86">
          <mxGeometry x="667.5" y="470" width="32.5" height="20" as="geometry" />
        </mxCell>
        <mxCell id="1Ielz3oQNkOGcChXhk5W-77" value="1" style="text;html=1;strokeColor=none;fillColor=none;align=center;verticalAlign=middle;whiteSpace=wrap;rounded=0;container=0;" vertex="1" parent="1Ielz3oQNkOGcChXhk5W-86">
          <mxGeometry x="998.25" y="460" width="32.5" height="20" as="geometry" />
        </mxCell>
        <mxCell id="1Ielz3oQNkOGcChXhk5W-78" value="1" style="text;html=1;strokeColor=none;fillColor=none;align=center;verticalAlign=middle;whiteSpace=wrap;rounded=0;container=0;" vertex="1" parent="1Ielz3oQNkOGcChXhk5W-86">
          <mxGeometry x="1087.5" y="430" width="32.5" height="20" as="geometry" />
        </mxCell>
        <mxCell id="1Ielz3oQNkOGcChXhk5W-79" value="1" style="text;html=1;strokeColor=none;fillColor=none;align=center;verticalAlign=middle;whiteSpace=wrap;rounded=0;container=0;" vertex="1" parent="1Ielz3oQNkOGcChXhk5W-86">
          <mxGeometry x="558.75" y="480" width="32.5" height="20" as="geometry" />
        </mxCell>
        <mxCell id="1Ielz3oQNkOGcChXhk5W-80" value="Manage" style="rhombus;whiteSpace=wrap;html=1;container=0;fillColor=#FFFFCC;" vertex="1" parent="1Ielz3oQNkOGcChXhk5W-86">
          <mxGeometry x="125" y="330" width="89" height="70" as="geometry" />
        </mxCell>
        <mxCell id="1Ielz3oQNkOGcChXhk5W-81" value="" style="endArrow=none;html=1;rounded=0;entryX=0.176;entryY=1.05;entryDx=0;entryDy=0;entryPerimeter=0;exitX=0;exitY=0.5;exitDx=0;exitDy=0;" edge="1" parent="1Ielz3oQNkOGcChXhk5W-86" source="1Ielz3oQNkOGcChXhk5W-80" target="RPgmEn2qXm2ILgxolk-a-31">
          <mxGeometry width="50" height="50" relative="1" as="geometry">
            <mxPoint x="740" y="300" as="sourcePoint" />
            <mxPoint x="790" y="250" as="targetPoint" />
          </mxGeometry>
        </mxCell>
        <mxCell id="1Ielz3oQNkOGcChXhk5W-82" value="" style="endArrow=none;html=1;rounded=0;entryX=0.75;entryY=1;entryDx=0;entryDy=0;exitX=1;exitY=0.5;exitDx=0;exitDy=0;" edge="1" parent="1Ielz3oQNkOGcChXhk5W-86" source="1Ielz3oQNkOGcChXhk5W-80" target="RPgmEn2qXm2ILgxolk-a-31">
          <mxGeometry width="50" height="50" relative="1" as="geometry">
            <mxPoint x="740" y="300" as="sourcePoint" />
            <mxPoint x="790" y="250" as="targetPoint" />
          </mxGeometry>
        </mxCell>
        <mxCell id="1Ielz3oQNkOGcChXhk5W-84" value="N" style="text;html=1;strokeColor=none;fillColor=none;align=center;verticalAlign=middle;whiteSpace=wrap;rounded=0;container=0;" vertex="1" parent="1Ielz3oQNkOGcChXhk5W-86">
          <mxGeometry x="214" y="350" width="32.5" height="20" as="geometry" />
        </mxCell>
        <mxCell id="1Ielz3oQNkOGcChXhk5W-85" value="M" style="text;html=1;strokeColor=none;fillColor=none;align=center;verticalAlign=middle;whiteSpace=wrap;rounded=0;container=0;" vertex="1" parent="1Ielz3oQNkOGcChXhk5W-86">
          <mxGeometry x="87.5" y="350" width="32.5" height="20" as="geometry" />
        </mxCell>
      </root>
    </mxGraphModel>
  </diagram>
</mxfile>
